<mxfile host="app.diagrams.net" agent="Mozilla/5.0 (Windows NT 10.0; Win64; x64) AppleWebKit/537.36 (KHTML, like Gecko) Chrome/134.0.0.0 Safari/537.36 Edg/134.0.0.0" version="26.1.3">
  <diagram name="Pagina-1" id="sRcoqV66j2pTTsuWdJ66">
    <mxGraphModel dx="1002" dy="565" grid="0" gridSize="10" guides="1" tooltips="1" connect="1" arrows="1" fold="1" page="1" pageScale="1" pageWidth="827" pageHeight="1169" math="0" shadow="0">
      <root>
        <mxCell id="0" />
        <mxCell id="1" parent="0" />
        <mxCell id="4KfFidEqJX6KOeFN17Nu-1" value="IDLE, LOAD, SEND_REQ, DONE, INCR_CNT" style="text;html=1;align=center;verticalAlign=middle;resizable=0;points=[];autosize=1;strokeColor=none;fillColor=none;" parent="1" vertex="1">
          <mxGeometry x="92" y="19" width="265" height="26" as="geometry" />
        </mxCell>
        <mxCell id="4KfFidEqJX6KOeFN17Nu-2" value="idle" style="ellipse;whiteSpace=wrap;html=1;aspect=fixed;" parent="1" vertex="1">
          <mxGeometry x="84" y="188" width="80" height="80" as="geometry" />
        </mxCell>
        <mxCell id="4KfFidEqJX6KOeFN17Nu-3" value="" style="curved=1;endArrow=classic;html=1;rounded=0;exitX=0.055;exitY=0.375;exitDx=0;exitDy=0;exitPerimeter=0;" parent="1" source="4KfFidEqJX6KOeFN17Nu-2" edge="1">
          <mxGeometry width="50" height="50" relative="1" as="geometry">
            <mxPoint x="47" y="221" as="sourcePoint" />
            <mxPoint x="120" y="187" as="targetPoint" />
            <Array as="points">
              <mxPoint x="47" y="171" />
            </Array>
          </mxGeometry>
        </mxCell>
        <mxCell id="4KfFidEqJX6KOeFN17Nu-7" value="req = 0" style="text;html=1;align=center;verticalAlign=middle;resizable=0;points=[];autosize=1;strokeColor=none;fillColor=none;" parent="1" vertex="1">
          <mxGeometry x="18" y="176" width="56" height="26" as="geometry" />
        </mxCell>
        <mxCell id="4KfFidEqJX6KOeFN17Nu-8" value="SEND ACK&lt;br&gt;&lt;div&gt;ack = 1&lt;/div&gt;" style="ellipse;whiteSpace=wrap;html=1;aspect=fixed;" parent="1" vertex="1">
          <mxGeometry x="254" y="188" width="80" height="80" as="geometry" />
        </mxCell>
        <mxCell id="4KfFidEqJX6KOeFN17Nu-9" value="DONE&lt;br&gt;&lt;div&gt;ack = 0&lt;/div&gt;&lt;div&gt;en_acc = 1&lt;/div&gt;" style="ellipse;whiteSpace=wrap;html=1;aspect=fixed;" parent="1" vertex="1">
          <mxGeometry x="429" y="188" width="80" height="80" as="geometry" />
        </mxCell>
        <mxCell id="4KfFidEqJX6KOeFN17Nu-11" value="INCR_CNT&lt;div&gt;en_count=1&lt;/div&gt;" style="ellipse;whiteSpace=wrap;html=1;aspect=fixed;" parent="1" vertex="1">
          <mxGeometry x="433" y="339" width="80" height="80" as="geometry" />
        </mxCell>
        <mxCell id="4KfFidEqJX6KOeFN17Nu-12" value="" style="endArrow=classic;html=1;rounded=0;entryX=0;entryY=0.5;entryDx=0;entryDy=0;exitX=1;exitY=0.5;exitDx=0;exitDy=0;" parent="1" source="4KfFidEqJX6KOeFN17Nu-2" target="4KfFidEqJX6KOeFN17Nu-8" edge="1">
          <mxGeometry width="50" height="50" relative="1" as="geometry">
            <mxPoint x="164" y="271" as="sourcePoint" />
            <mxPoint x="214" y="221" as="targetPoint" />
          </mxGeometry>
        </mxCell>
        <mxCell id="4KfFidEqJX6KOeFN17Nu-13" value="req=1" style="edgeLabel;html=1;align=center;verticalAlign=middle;resizable=0;points=[];" parent="4KfFidEqJX6KOeFN17Nu-12" vertex="1" connectable="0">
          <mxGeometry x="0.1956" relative="1" as="geometry">
            <mxPoint x="-6" y="-16" as="offset" />
          </mxGeometry>
        </mxCell>
        <mxCell id="4KfFidEqJX6KOeFN17Nu-14" value="" style="endArrow=classic;html=1;rounded=0;entryX=0;entryY=0.5;entryDx=0;entryDy=0;exitX=1;exitY=0.5;exitDx=0;exitDy=0;" parent="1" source="4KfFidEqJX6KOeFN17Nu-8" target="4KfFidEqJX6KOeFN17Nu-9" edge="1">
          <mxGeometry width="50" height="50" relative="1" as="geometry">
            <mxPoint x="375" y="269" as="sourcePoint" />
            <mxPoint x="425" y="219" as="targetPoint" />
          </mxGeometry>
        </mxCell>
        <mxCell id="4KfFidEqJX6KOeFN17Nu-33" value="" style="endArrow=classic;html=1;rounded=0;entryX=0.725;entryY=0.945;entryDx=0;entryDy=0;exitX=0;exitY=0.5;exitDx=0;exitDy=0;entryPerimeter=0;" parent="1" source="4KfFidEqJX6KOeFN17Nu-11" target="4KfFidEqJX6KOeFN17Nu-2" edge="1">
          <mxGeometry width="50" height="50" relative="1" as="geometry">
            <mxPoint x="294" y="397" as="sourcePoint" />
            <mxPoint x="242" y="292" as="targetPoint" />
          </mxGeometry>
        </mxCell>
        <mxCell id="4KfFidEqJX6KOeFN17Nu-34" value="count != &#39;111&#39;" style="text;html=1;align=center;verticalAlign=middle;resizable=0;points=[];autosize=1;strokeColor=none;fillColor=none;" parent="1" vertex="1">
          <mxGeometry x="182" y="335" width="87" height="26" as="geometry" />
        </mxCell>
        <mxCell id="8dpceOhHh6FnaFMgbEDM-2" value="" style="curved=1;endArrow=classic;html=1;rounded=0;exitX=0.055;exitY=0.375;exitDx=0;exitDy=0;exitPerimeter=0;entryX=0.5;entryY=0;entryDx=0;entryDy=0;" edge="1" parent="1" target="4KfFidEqJX6KOeFN17Nu-8">
          <mxGeometry width="50" height="50" relative="1" as="geometry">
            <mxPoint x="258" y="212.5" as="sourcePoint" />
            <mxPoint x="290" y="181.5" as="targetPoint" />
            <Array as="points">
              <mxPoint x="217" y="165.5" />
            </Array>
          </mxGeometry>
        </mxCell>
        <mxCell id="8dpceOhHh6FnaFMgbEDM-4" value="req=1" style="text;html=1;align=center;verticalAlign=middle;resizable=0;points=[];autosize=1;strokeColor=none;fillColor=none;" vertex="1" parent="1">
          <mxGeometry x="236" y="144" width="49" height="26" as="geometry" />
        </mxCell>
        <mxCell id="8dpceOhHh6FnaFMgbEDM-8" value="" style="endArrow=classic;html=1;rounded=0;exitX=0.593;exitY=0.988;exitDx=0;exitDy=0;exitPerimeter=0;" edge="1" parent="1" source="4KfFidEqJX6KOeFN17Nu-9" target="4KfFidEqJX6KOeFN17Nu-11">
          <mxGeometry width="50" height="50" relative="1" as="geometry">
            <mxPoint x="490" y="328" as="sourcePoint" />
            <mxPoint x="540" y="278" as="targetPoint" />
          </mxGeometry>
        </mxCell>
        <mxCell id="8dpceOhHh6FnaFMgbEDM-9" value="WRITE&lt;div&gt;en_write = 1&lt;/div&gt;" style="ellipse;whiteSpace=wrap;html=1;aspect=fixed;" vertex="1" parent="1">
          <mxGeometry x="603" y="339" width="80" height="80" as="geometry" />
        </mxCell>
        <mxCell id="8dpceOhHh6FnaFMgbEDM-11" value="" style="endArrow=classic;html=1;rounded=0;entryX=0;entryY=0.5;entryDx=0;entryDy=0;exitX=1;exitY=0.5;exitDx=0;exitDy=0;" edge="1" parent="1" source="4KfFidEqJX6KOeFN17Nu-11" target="8dpceOhHh6FnaFMgbEDM-9">
          <mxGeometry width="50" height="50" relative="1" as="geometry">
            <mxPoint x="510" y="427" as="sourcePoint" />
            <mxPoint x="560" y="377" as="targetPoint" />
          </mxGeometry>
        </mxCell>
        <mxCell id="8dpceOhHh6FnaFMgbEDM-12" value="cont = &#39;111&#39;" style="text;html=1;align=center;verticalAlign=middle;resizable=0;points=[];autosize=1;strokeColor=none;fillColor=none;" vertex="1" parent="1">
          <mxGeometry x="519" y="357" width="77" height="26" as="geometry" />
        </mxCell>
        <mxCell id="8dpceOhHh6FnaFMgbEDM-13" value="" style="curved=1;endArrow=classic;html=1;rounded=0;exitX=0.5;exitY=1;exitDx=0;exitDy=0;entryX=0.295;entryY=0.965;entryDx=0;entryDy=0;entryPerimeter=0;" edge="1" parent="1" source="8dpceOhHh6FnaFMgbEDM-9" target="4KfFidEqJX6KOeFN17Nu-2">
          <mxGeometry width="50" height="50" relative="1" as="geometry">
            <mxPoint x="634.44" y="505.44000000000005" as="sourcePoint" />
            <mxPoint x="446" y="440" as="targetPoint" />
            <Array as="points">
              <mxPoint x="446" y="490" />
              <mxPoint x="164" y="435" />
            </Array>
          </mxGeometry>
        </mxCell>
      </root>
    </mxGraphModel>
  </diagram>
</mxfile>
